<?xml version="1.0" encoding="iso-8859-1"?>
<!-- Generator: Adobe Illustrator 16.0.0, SVG Export Plug-In . SVG Version: 6.00 Build 0)  -->
<!DOCTYPE svg PUBLIC "-//W3C//DTD SVG 1.1//EN" "http://www.w3.org/Graphics/SVG/1.1/DTD/svg11.dtd">
<svg version="1.1" id="Capa_1" xmlns="http://www.w3.org/2000/svg" xmlns:xlink="http://www.w3.org/1999/xlink" x="0px" y="0px"
	 width="349.899px" height="349.898px" viewBox="0 0 349.899 349.898" style="enable-background:new 0 0 349.899 349.898;"
	 xml:space="preserve">
<g>
	<g>
		<path d="M175.522,12.235c-42.6,0-77.256,34.649-77.256,77.25c0,42.6,34.656,77.255,77.256,77.255
			c42.591,0,77.257-34.656,77.257-77.255C252.779,46.895,218.113,12.235,175.522,12.235z"/>
		<path d="M77.255,337.663c42.599,0,77.255-34.641,77.255-77.251c0-42.594-34.656-77.25-77.255-77.25
			C34.653,183.162,0,217.818,0,260.412C0,303.012,34.653,337.663,77.255,337.663z"/>
		<path d="M272.648,183.151c-42.603,0-77.256,34.65-77.256,77.256c0,42.604,34.653,77.25,77.256,77.25
			c42.6,0,77.251-34.646,77.251-77.25C349.909,217.818,315.248,183.151,272.648,183.151z"/>
	</g>
</g>
<g>
</g>
<g>
</g>
<g>
</g>
<g>
</g>
<g>
</g>
<g>
</g>
<g>
</g>
<g>
</g>
<g>
</g>
<g>
</g>
<g>
</g>
<g>
</g>
<g>
</g>
<g>
</g>
<g>
</g>
</svg>
