<svg width="350.00000000000006" height="350.00000000000006" xmlns="http://www.w3.org/2000/svg" xmlns:svg="http://www.w3.org/2000/svg">
  <g>
    <title>Layer 1</title>
    <rect stroke="null" id="svg_6" height="350" width="350" y="0" x="0" stroke-linecap="null" stroke-linejoin="null" stroke-dasharray="null" stroke-width="null" fill="#ffffff"/>
    <g stroke="null" id="svg_1">
      <path stroke="null" d="m175.896845,40.000002c-34.43902,0 -62.45589,28.011211 -62.45589,62.451039c0,34.43902 28.01687,62.455081 62.45589,62.455081c34.431744,0 62.456698,-28.01687 62.456698,-62.455081c0,-34.430935 -28.024954,-62.451039 -62.456698,-62.451039z" fill="#3f51b5" opacity="0.9" id="svg_2"/>
      <path stroke="null" d="m96.455081,303.085008c34.438211,0 62.455081,-28.004744 62.455081,-62.451848c0,-34.434169 -28.01687,-62.451039 -62.455081,-62.451039c-34.440637,0 -62.455081,28.01687 -62.455081,62.451039c0,34.43902 28.014445,62.451848 62.455081,62.451848z" fill="#66cdaa" id="svg_3"/>
      <path stroke="null" d="m254.416193,178.173229c-34.441445,0 -62.45589,28.01202 -62.45589,62.45589c0,34.442253 28.014445,62.451039 62.45589,62.451039c34.43902,0 62.451848,-28.008786 62.451848,-62.451039c0.008084,-34.430127 -28.012828,-62.45589 -62.451848,-62.45589z" fill="#ff4081" id="svg_4"/>
    </g>
  </g>
</svg>
