<svg version="1" xmlns="http://www.w3.org/2000/svg" width="933.333" height="933.333" viewBox="0 0 700.000000 700.000000"><path d="M347.5 24.8c-.1.1-3.2.3-6.9.3-3.6.1-6.4.4-6.2.7.2.4-1.5.7-3.7.7-4 0-8.4.7-13.7 2-1.4.3-3.6.8-5 1.1-1.4.3-2.6.9-2.8 1.4-.2.5-.9.7-1.5.5-1.3-.5-9 1.9-8.3 2.6.2.2-.5.5-1.7.5-3.5.3-16.7 6.6-16 7.7.3.6.1.7-.5.3-2.9-1.8-25.5 14-38.2 26.6-9.9 9.9-13.1 13.8-12.3 15.1.3.6.1.7-.5.3-.6-.3-1.6.2-2.1 1.3-.6 1.1-1.7 2.6-2.5 3.4-.9.8-2.3 2.8-3.3 4.5-6.1 10-9.6 16.7-9.6 17.8 0 .8-.3 1.4-.7 1.4-.4 0-1.3 1.2-2 2.7-1.9 4.1-7.9 22.3-7.4 22.3.3 0 0 .9-.6 2-1.3 2.4-2.8 9.9-4.5 23.2-.3 1.8-.5 8-.5 13.8v14.3c-.1 2.1.3 3.7.7 3.4.4-.3.9 2.1.9 5.2.3 11.6 7.1 33.8 15.1 49.1 7.5 14.4 19.2 30.9 21.5 30.2.5-.1.7.1.4.6-.8 1.4 12.1 14.3 21.9 21.9 6.7 5.1 21.7 14.3 22.6 13.7.5-.3.9-.1.9.4 0 1 7.7 4.7 17 8.1 7.5 2.8 20.1 6.1 28 7.3 3.6.5 7.6 1.2 9 1.4 3.4.5 29 .6 31.6 0 1.2-.2 4.5-.7 7.5-1.1 4.5-.5 10.5-1.9 21.9-5 5-1.3 14.8-5.3 22.9-9.3 14.1-7 16.1-8.1 16.1-9.2 0-.6.5-1 1.2-1 2 0 15.8-11.2 15.1-12.3-.3-.5-.1-.7.5-.3 1.1.7 15-12.6 18-17.2.9-1.5 2.5-3.3 3.4-4 1-.7 1.8-2 1.8-2.8 0-.8.3-1.4.8-1.4 1 0 5.5-6.9 5.5-8.5 0-.8.4-1.2.7-1 1 .6 12.4-22.5 14.9-30 3.5-10.8 6-21.3 6.6-27.5.2-1.9.4-3.5.5-3.5 1 0 1.4-32.5.5-36.5-.6-2.5-1.3-7.9-1.4-11.3-.1-1-.4-1.6-.8-1.4-.5.3-.9-1.4-1-3.6-.1-2.3-.6-4.3-1.2-4.5-.6-.2-.9-.8-.6-1.3.6-.9-.9-7.4-2.7-11.8-.6-1.4-1.2-2.9-1.2-3.3-.1-.3-.4-1-.8-1.4-.5-.4-.8-1.5-.8-2.5s-.7-2.5-1.6-3.3c-.8-.9-1.3-1.6-1-1.6.8 0-5.5-12.3-9.6-18.8-1.9-2.9-3.7-5-4.1-4.7-.4.3-.5.2-.2-.1.8-1.2-1.6-4.5-2.7-3.8-.7.5-.8.2-.3-.5.4-.8-.1-2.1-1.4-3.2-1.2-1.1-2.1-2.3-2.1-2.7 0-.9-15-16.9-15-16.1 0 .4-1.9-1.2-4.3-3.5-7.7-7.4-18.4-14.9-20-13.9-.5.3-.7.1-.4-.4.6-.9-1.7-2.7-2.6-2-.2.1-1.1-.6-2.1-1.6-1-.9-2.2-1.5-2.7-1.2-.5.4-.9.2-.9-.3 0-.8-5.6-3.6-16.2-8.1-2.7-1.1-4.8-1.8-4.8-1.4 0 .3-.7 0-1.5-.7-.8-.6-1.9-.9-2.5-.5-.5.3-1 .2-1-.3 0-.6-11-3.8-15-4.3-.3 0-2.5-.5-5-1-6.5-1.2-28.7-2.9-29.5-2.1zm-90 223.2c-.3.5-1.2 1-1.8 1-.7 0-.6-.4.3-1 1.9-1.2 2.3-1.2 1.5 0zm54.9 72.6c.3.8.2 1.2-.4.9-.6-.3-1-1-1-1.6 0-1.4.7-1.1 1.4.7zM140 367.2c-3 .4-7.7.9-10.4 1.2-6.6.8-22.5 5.2-31.4 8.7-26 10.3-50.1 28.5-66.5 50.2-14.9 19.8-24.7 42.1-29.4 67C.6 503.8-.2 530 1.1 538c.5 3 1.1 7.5 1.5 10 .8 6.4 6 24.1 9.5 32.5 11.7 28.3 34.8 55.2 61.9 72 15.6 9.8 40.6 18.9 57 20.9 2.5.3 6.1.8 8 1.1 6.1.9 27.6.6 34.2-.4 3.5-.6 7.9-1.2 9.8-1.5 4.8-.6 17.9-4.3 25.6-7.2 41.4-15.5 76.1-50.5 90.8-91.2 2.8-8 6.6-21.8 7.3-27.2.3-1.9.8-5.4 1.3-7.7.8-4.8.5-34.9-.5-40.3-.6-3.4-2.7-14-3-15-.1-.3-.5-1.9-.9-3.5-2.3-8.8-6.1-18.8-11.3-29-22.8-45.2-65.6-76-115.9-83.5-9.5-1.4-28.7-1.9-36.4-.8zM531.5 367.1c-10.5 1-15.2 1.8-23.7 4-49.4 12.4-90.1 49.1-107.4 96.6-6.7 18.6-8.5 28.9-8.9 51.3-.5 30.4 6.1 55.3 21.4 81 23.7 39.6 65.4 67.4 110.1 73.5 3 .5 6.6.9 8 1.1 3.3.5 24.8.5 28 0 1.4-.2 5.2-.7 8.5-1.1 19.4-2.4 40-9.9 59.3-21.6 35.4-21.7 62.3-60.7 70.2-102.1 1.7-8.8 2.3-15.2 2.4-28.3.7-58.2-32.4-112.1-85.2-138.9-11.7-5.9-32.1-12.5-43.3-14.1-2.5-.3-5.8-.8-7.3-1.1-4.8-.8-24.8-1-32.1-.3z"/></svg>